<?xml version="1.0" standalone="no"?>
<!DOCTYPE svg PUBLIC "-//W3C//DTD SVG 20010904//EN" "http://www.w3.org/TR/2001/REC-SVG-20010904/DTD/svg10.dtd">
<svg xmlns="http://www.w3.org/2000/svg" version="1.0" width="1920.000000pt" height="1128.000000pt" viewBox="0 0 1920.000000 1128.000000" preserveAspectRatio="xMidYMid meet" fill="#4EDD69">
<metadata fill="#4EDD69">
Silhouette image created by Creazilla.com with potrace 1.16, written by Peter Selinger 2001-2019
</metadata>
<g transform="translate(0.000000,1128.000000) scale(0.100000,-0.100000)" fill="#4EDD69">
<path d="M14175 11120 c-200 -32 -283 -40 -630 -60 l-400 -22 -521 56 c-351 38 -563 56 -649 56 l-127 0 -96 -87 c-54 -48 -98 -89 -99 -92 -4 -12 363 -182 392 -181 17 0 68 7 115 15 47 8 97 15 112 15 17 0 105 -53 264 -160 204 -137 243 -160 276 -160 21 0 38 -1 38 -3 0 -2 -11 -32 -25 -66 -13 -35 -22 -67 -20 -71 3 -4 26 -13 51 -19 61 -16 53 -23 -9 -8 -29 6 -51 7 -56 1 -4 -5 -42 -110 -84 -234 -85 -256 -338 -994 -342 -998 -1 -1 -21 4 -44 13 -32 11 -43 12 -46 2 -19 -52 -45 -132 -45 -139 0 -5 14 -14 30 -19 17 -6 30 -15 30 -19 0 -12 -52 -153 -59 -162 -6 -6 -1521 59 -2366 102 -115 6 -806 37 -1535 70 -1328 59 -1475 69 -1621 110 l-37 10 74 187 c41 102 75 188 77 190 2 1 21 -3 43 -11 l39 -13 47 131 c26 72 48 134 48 138 0 3 -16 12 -35 18 -19 6 -35 13 -35 16 0 2 11 32 24 67 l24 64 -156 42 c-87 23 -160 41 -164 41 -3 0 -14 -22 -23 -50 -9 -27 -22 -50 -28 -50 -7 0 -175 56 -373 125 -199 68 -381 129 -405 134 -34 8 -833 94 -1274 137 -170 16 -281 56 -291 104 -3 14 -13 44 -21 67 -9 24 -13 53 -9 68 5 19 -1 37 -24 70 -53 77 -99 69 -189 -31 -55 -62 -81 -124 -81 -191 0 -37 -8 -54 -55 -116 -31 -39 -79 -117 -108 -172 l-52 -100 -3 -145 c-1 -80 3 -216 11 -302 l13 -157 -41 -61 c-22 -33 -65 -85 -95 -115 -41 -42 -51 -58 -42 -67 9 -9 17 -7 34 9 13 11 46 35 73 53 153 101 169 143 149 401 -12 158 -11 212 2 276 4 23 26 48 82 90 32 25 33 26 87 10 31 -9 72 -29 93 -44 20 -16 72 -51 115 -77 47 -29 91 -66 112 -93 30 -40 35 -53 35 -102 0 -81 18 -213 41 -305 11 -43 24 -131 28 -195 10 -130 49 -297 87 -374 14 -27 58 -82 97 -121 69 -69 86 -79 426 -255 311 -161 360 -183 401 -183 144 0 219 166 122 272 -16 18 -158 97 -357 200 -344 177 -405 219 -405 273 0 14 -7 44 -16 68 -9 24 -20 100 -25 169 -5 75 -18 165 -34 224 -14 55 -22 103 -18 107 5 3 41 35 82 70 l74 63 113 -38 c186 -63 468 -213 561 -298 23 -22 48 -114 79 -288 25 -145 31 -581 10 -777 -17 -157 -43 -329 -72 -464 -13 -61 -21 -79 -39 -87 -15 -7 -67 -91 -156 -251 -97 -175 -138 -240 -148 -236 -45 17 -263 77 -366 100 -441 99 -929 111 -1390 34 -1357 -225 -2487 -1229 -2875 -2554 -271 -926 -159 -1940 307 -2775 167 -300 366 -564 608 -805 293 -294 571 -494 940 -680 386 -195 734 -301 1185 -362 188 -25 695 -25 885 0 287 39 583 112 838 208 174 65 481 217 637 316 1316 828 1960 2380 1614 3893 -203 885 -751 1683 -1502 2187 -64 43 -119 79 -121 80 -1 1 27 134 64 295 61 263 72 300 107 361 22 37 44 67 48 67 4 0 229 -246 501 -547 272 -301 542 -599 601 -663 394 -431 2338 -2583 2338 -2589 0 -4 -20 -43 -45 -87 -54 -95 -98 -205 -126 -317 -30 -118 -37 -352 -15 -470 77 -407 396 -785 818 -969 120 -52 298 -97 416 -105 l92 -6 10 -36 c5 -20 45 -171 90 -336 44 -165 80 -303 80 -307 0 -4 -18 -12 -39 -18 -24 -6 -52 -25 -71 -47 -28 -32 -32 -41 -27 -77 7 -49 47 -89 104 -105 51 -14 422 -14 479 0 29 8 54 23 74 46 67 76 16 173 -102 189 l-44 6 -94 352 c-51 193 -95 356 -97 361 -2 6 54 20 134 34 76 12 269 50 428 83 160 32 306 62 325 65 l35 5 97 -144 c142 -211 251 -343 447 -538 174 -174 296 -279 461 -396 899 -637 2033 -832 3095 -532 1073 303 1966 1111 2378 2153 450 1137 297 2421 -407 3424 -216 307 -537 632 -840 851 -336 242 -762 447 -1151 554 -836 230 -1731 156 -2511 -209 -53 -25 -98 -45 -100 -45 -2 0 -67 95 -145 211 -120 179 -148 214 -179 227 -33 15 -44 31 -119 178 -146 286 -269 443 -424 543 -47 31 -66 48 -63 60 3 9 31 116 62 239 l58 223 25 -6 c14 -4 30 -7 34 -8 11 -2 59 133 53 149 -3 7 -18 15 -35 19 -17 4 -31 10 -31 15 0 4 77 232 171 506 212 618 261 765 256 770 -2 3 -40 12 -83 21 -43 9 -81 18 -83 20 -12 9 81 88 135 114 51 25 74 31 128 30 36 0 66 3 66 7 0 4 39 4 88 0 l87 -7 75 78 75 79 99 -7 c142 -9 307 31 499 122 l139 65 114 134 c63 73 114 136 114 140 0 12 -183 108 -204 107 -11 -1 -124 -18 -251 -39z m-1610 -316 c104 -12 932 -181 1020 -207 5 -2 -12 -26 -38 -54 l-48 -51 -62 5 c-34 3 -89 13 -122 24 -98 30 -200 42 -305 34 -52 -4 -123 -7 -157 -7 l-61 1 -199 132 c-221 147 -229 153 -193 145 14 -3 88 -13 165 -22z m-7411 -964 c55 -6 106 -16 113 -22 21 -17 131 -185 163 -248 43 -85 80 -181 67 -173 -7 4 -43 27 -81 51 -88 57 -306 161 -421 202 -49 17 -91 32 -92 34 -2 2 12 28 30 59 19 31 40 70 47 86 10 25 16 29 43 25 18 -2 77 -9 131 -14z m429 -46 c92 -9 191 -14 219 -12 47 5 84 -5 368 -103 173 -60 320 -111 327 -113 14 -6 -120 -353 -145 -377 -16 -15 -23 -13 -95 17 -298 128 -580 313 -808 533 -66 63 -79 80 -59 77 14 -3 100 -13 193 -22z m-57 -215 c10 -12 69 -58 129 -104 179 -134 348 -233 537 -315 60 -27 112 -51 115 -54 6 -6 -169 -506 -177 -505 -3 0 -27 46 -55 102 -102 208 -210 359 -367 515 -93 92 -105 109 -127 170 -12 37 -38 100 -56 140 -34 73 -34 89 1 51z m210 -487 c105 -120 202 -269 290 -444 l74 -148 -167 -472 c-92 -260 -172 -478 -178 -484 -6 -6 -69 -113 -140 -238 -72 -124 -134 -226 -140 -226 -5 0 -16 4 -24 9 -11 7 -6 24 29 87 200 364 200 364 200 405 0 31 -7 47 -28 68 -15 15 -33 30 -40 32 -9 3 -7 28 9 109 55 286 79 521 79 786 0 238 -19 437 -57 593 -9 35 6 23 93 -77z m1369 -432 c592 -27 1664 -77 1935 -90 118 -6 665 -31 1215 -55 550 -24 1068 -49 1150 -55 83 -5 224 -15 315 -21 164 -10 367 -33 375 -41 4 -4 -1432 -4109 -1438 -4114 -1 -1 -44 -3 -96 -5 l-93 -4 -99 365 c-54 201 -100 374 -101 385 -2 14 5 21 30 29 18 5 46 24 62 43 54 62 31 135 -54 174 -36 16 -68 19 -255 19 -240 0 -277 -6 -321 -57 -73 -83 -6 -180 134 -195 l29 -3 93 -350 c52 -192 94 -353 94 -358 0 -6 -161 171 -501 555 -57 65 -547 611 -1089 1215 -542 604 -1026 1143 -1075 1199 -50 55 -283 316 -519 580 -236 263 -438 489 -449 501 -19 22 -19 22 33 166 l52 145 61 -4 c34 -2 265 -13 512 -24z m5575 -483 c109 -85 220 -245 346 -500 38 -75 55 -120 48 -125 -23 -15 -44 -58 -44 -89 0 -25 32 -80 139 -241 l139 -209 -30 -18 c-25 -15 -32 -15 -43 -4 -11 12 -694 1016 -718 1056 -7 11 -1 42 34 175 l10 37 29 -18 c17 -10 57 -39 90 -64z m25 -911 l305 -449 -22 -16 c-80 -55 -242 -195 -357 -306 -563 -546 -925 -1234 -1055 -2003 -14 -85 -26 -169 -26 -188 l0 -34 -165 0 c-91 0 -165 2 -165 4 0 2 237 703 526 1558 290 854 552 1628 583 1721 30 92 59 166 63 165 4 -2 144 -205 313 -452z m2599 -528 c3 -101 11 -664 17 -1253 l10 -1070 -44 -110 -45 -110 -40 -3 c-41 -3 -41 -3 -112 92 l-71 95 -185 723 c-102 398 -241 942 -309 1210 -69 268 -125 494 -125 502 0 16 78 36 260 66 160 27 278 37 471 39 l167 1 6 -182z m206 162 c201 -21 555 -106 701 -168 l47 -20 -137 -339 c-76 -186 -274 -677 -441 -1090 -167 -414 -305 -751 -307 -750 -2 3 -43 2181 -43 2329 l0 56 38 -4 c20 -2 84 -8 142 -14z m-848 -1257 c281 -1126 293 -1175 264 -1139 -17 21 -327 473 -688 1004 -500 736 -654 970 -645 979 23 22 218 124 344 179 102 45 395 151 424 153 4 1 139 -529 301 -1176z m-10476 1123 c1 0 8 -504 15 -1118 l12 -1117 -84 -172 -84 -172 -72 95 -71 95 -287 1124 c-157 618 -290 1136 -295 1151 -5 15 -5 30 0 33 13 8 184 42 305 60 120 18 379 32 490 26 39 -2 71 -4 71 -5z m213 -12 c216 -25 528 -96 657 -150 30 -13 33 -16 24 -39 -5 -14 -145 -362 -311 -773 -223 -553 -330 -803 -409 -962 l-107 -214 -7 309 c-3 171 -11 600 -16 955 -5 355 -12 700 -14 768 l-4 122 27 0 c14 0 86 -7 160 -16z m12086 -143 c192 -95 325 -176 479 -290 l96 -71 -187 -262 c-102 -145 -419 -592 -705 -995 l-519 -732 -111 -70 c-94 -59 -114 -68 -133 -59 -25 11 -35 70 -35 204 0 71 4 83 236 666 455 1143 637 1603 665 1676 5 12 14 22 21 22 8 0 94 -40 193 -89z m-12923 -1037 c152 -608 272 -1102 268 -1097 -33 33 -1379 1830 -1377 1837 6 18 221 135 359 196 105 47 439 168 468 170 3 0 129 -498 282 -1106z m1602 991 c21 -9 36 -20 34 -26 -6 -19 -493 -1007 -495 -1005 -4 4 412 1046 418 1046 4 0 23 -7 43 -15z m8909 -1306 l719 -1054 -51 -3 c-31 -2 -58 2 -69 10 -66 47 -1882 1561 -1882 1568 0 15 117 148 224 256 113 112 316 285 330 280 6 -1 333 -477 729 -1057z m-10928 71 l720 -969 34 -137 c44 -178 47 -176 -127 -122 -70 21 -136 45 -147 52 -35 24 -1870 1548 -1873 1556 -9 23 266 293 423 415 86 67 237 174 245 174 3 0 329 -436 725 -969z m2667 880 l67 -49 -112 -158 c-62 -87 -198 -278 -302 -425 -104 -147 -190 -266 -192 -264 -1 1 73 155 165 342 93 186 197 399 232 472 35 72 66 132 69 132 3 0 36 -23 73 -50z m11383 -80 c128 -114 269 -270 386 -426 86 -114 116 -161 108 -167 -2 -2 -431 -271 -954 -597 -522 -327 -961 -601 -975 -609 -19 -13 -14 -1 25 55 28 39 329 470 670 957 341 487 623 885 627 884 4 -1 55 -45 113 -97z m-11196 -65 c161 -134 378 -364 488 -517 l32 -44 -826 -517 c-455 -284 -828 -515 -830 -514 -2 2 64 141 145 308 l149 304 369 527 c203 290 372 527 376 528 4 0 48 -34 97 -75z m7720 -1105 c490 -410 890 -749 890 -754 1 -5 -14 -6 -32 -3 -18 3 -538 160 -1155 349 -745 228 -1122 347 -1122 356 0 26 92 238 159 367 76 147 166 294 249 406 l57 77 32 -27 c18 -14 433 -361 922 -771z m-11212 78 c428 -359 833 -698 901 -755 67 -57 119 -103 115 -103 -5 0 -519 157 -1143 348 -1020 313 -1135 350 -1132 368 5 35 170 357 236 462 61 97 232 332 241 332 3 0 355 -293 782 -652z m15284 348 c34 -61 82 -153 107 -205 89 -190 182 -456 165 -471 -4 -4 -282 -100 -618 -213 -335 -113 -839 -283 -1118 -377 l-509 -172 -136 9 c-135 8 -137 8 -146 34 -8 24 0 39 67 134 l75 108 1014 642 c749 475 1016 639 1024 631 7 -6 40 -60 75 -120z m-11179 -21 c134 -212 334 -650 305 -666 -7 -4 -239 -83 -517 -177 -278 -94 -772 -261 -1099 -371 -604 -204 -627 -210 -722 -195 l-37 6 126 202 c69 110 132 209 142 219 22 24 1713 1096 1724 1093 5 -1 40 -51 78 -111z m6727 -821 c575 -179 1051 -327 1056 -329 20 -7 -169 -4 -1035 15 -487 11 -957 20 -1045 21 -88 0 -163 3 -166 5 -22 13 114 614 140 614 2 0 475 -147 1050 -326z m-11556 137 c2026 -633 1825 -567 1886 -617 30 -25 69 -58 87 -74 l33 -29 -22 -50 -22 -50 -95 -32 -95 -32 -1205 76 c-663 43 -1231 80 -1264 83 l-59 6 7 82 c8 115 42 309 77 446 38 146 110 360 121 360 5 0 253 -76 551 -169z m16324 -101 c50 -212 97 -668 79 -764 -7 -35 -7 -35 -54 -30 -26 2 -373 27 -772 54 -1275 88 -1422 98 -1426 103 -5 5 2121 735 2136 733 10 -1 22 -32 37 -96z m-11152 33 c74 -251 125 -568 125 -771 l0 -63 -57 6 c-32 3 -515 37 -1073 75 -558 38 -1044 72 -1080 76 l-65 6 595 205 c327 112 802 276 1055 363 253 87 465 159 472 159 6 1 19 -25 28 -56z m8379 -441 c-1 -2 -13 0 -27 3 l-25 7 21 59 22 60 5 -63 c3 -35 4 -64 4 -66z m-11314 -29 c0 -13 -27 -43 -39 -43 -5 0 -16 30 -25 68 -9 37 -19 76 -23 87 -3 11 15 -7 41 -40 25 -33 46 -65 46 -72z m6477 45 c-3 -8 -6 -5 -6 6 -1 11 2 17 5 13 3 -3 4 -12 1 -19z m115 -3 c-5 -30 -27 -33 -42 -6 -15 28 -13 31 19 31 25 0 28 -3 23 -25z m817 15 l107 0 -3 -97 c-5 -156 -13 -220 -26 -220 -7 0 -32 -12 -55 -28 -33 -22 -45 -26 -55 -16 -9 9 -5 23 16 61 42 75 23 92 -44 38 -53 -43 -68 -29 -44 42 24 74 8 87 -44 36 -54 -53 -75 -45 -55 20 18 59 18 70 0 77 -8 3 -26 -12 -46 -39 -53 -74 -50 -50 12 115 8 23 12 23 70 17 33 -3 109 -6 167 -6z m2131 -40 c863 -17 1066 -24 1115 -36 56 -14 93 -39 193 -129 11 -10 11 -20 1 -56 -7 -24 -16 -48 -19 -52 -11 -12 -394 -66 -471 -67 -56 0 -1630 98 -2084 130 -77 5 -148 10 -158 10 -16 0 -17 8 -12 93 4 50 8 103 11 116 l5 24 182 -7 c100 -3 657 -15 1237 -26z m1979 -55 l-42 -56 -19 21 c-11 12 -18 23 -17 24 15 13 115 73 117 71 2 -2 -15 -29 -39 -60z m-696 18 c-7 -2 -19 -2 -25 0 -7 3 -2 5 12 5 14 0 19 -2 13 -5z m-10994 -90 c3 -2 -4 -12 -15 -23 -19 -18 -20 -18 -69 26 l-50 44 65 -22 c36 -11 67 -23 69 -25z m11465 38 c17 -7 17 -8 -7 -24 -27 -17 -37 -14 -37 15 0 19 12 22 44 9z m-423 -20 c13 -11 21 -22 18 -26 -4 -3 -20 5 -35 19 -34 29 -18 35 17 7z m-12952 -181 c1350 -94 1517 -106 1501 -113 -8 -3 -370 -128 -805 -277 -434 -149 -952 -327 -1150 -396 -242 -83 -361 -120 -366 -112 -11 17 -48 200 -70 343 -14 90 -22 205 -26 373 l-6 242 28 0 c15 0 417 -27 894 -60z m10690 30 c1239 -86 1564 -110 1569 -115 3 -3 -6 -5 -19 -5 -13 0 -474 -65 -1024 -145 -550 -79 -1001 -142 -1003 -140 -8 7 -21 146 -28 288 l-7 147 38 0 c21 0 234 -14 474 -30z m2781 20 c0 -5 -5 -10 -11 -10 -5 0 -7 5 -4 10 3 6 8 10 11 10 2 0 4 -4 4 -10z m-10830 -9 c0 -5 -12 -11 -27 -14 -16 -3 -36 -9 -46 -13 -17 -6 -18 -5 -6 15 10 14 24 21 46 21 18 0 33 -4 33 -9z m10890 -11 c0 -11 -7 -20 -15 -20 -17 0 -18 2 -9 24 9 23 24 20 24 -4z m225 11 c-10 -8 -102 -41 -117 -41 -4 0 -8 11 -8 25 0 24 2 25 67 25 38 0 63 -4 58 -9z m-9771 -83 l1159 -73 -6 -150 c-6 -159 -26 -319 -58 -475 -29 -142 -60 -250 -71 -250 -9 0 -1206 372 -2074 644 l-232 73 -91 77 c-84 72 -91 80 -91 114 l0 38 123 41 c71 25 134 40 152 38 17 -2 552 -36 1189 -77z m10861 17 c468 -30 973 -62 1124 -72 l274 -17 -7 -100 c-13 -201 -62 -457 -127 -669 -25 -82 -33 -98 -47 -92 -9 4 -237 75 -507 160 -269 84 -769 240 -1110 346 l-619 194 -96 78 c-92 77 -95 81 -92 116 2 20 5 36 5 37 1 0 54 19 117 41 99 35 124 40 175 36 33 -2 443 -28 910 -58z m-5655 -14 c3 -3 21 -17 40 -31 53 -37 108 -89 152 -144 30 -38 36 -51 26 -57 -37 -21 -225 -50 -278 -44 -94 12 -93 6 -43 152 24 70 45 134 48 141 4 10 9 10 27 1 13 -7 25 -15 28 -18z m-7289 -8 c-12 -20 -14 -14 -5 12 4 9 9 14 11 11 3 -2 0 -13 -6 -23z m7685 -14 c-1 -30 -7 -45 -22 -56 -17 -11 -23 -11 -32 0 -8 9 -4 23 16 55 15 23 30 42 33 42 3 0 6 -19 5 -41z m-7796 -9 c0 -5 -15 -10 -32 -9 -28 0 -30 2 -13 9 28 12 45 12 45 0z m-62 -50 c60 0 62 -1 62 -25 0 -14 9 -53 21 -87 l20 -61 -38 -55 c-36 -53 -82 -83 -1126 -744 -599 -378 -1093 -686 -1098 -682 -33 20 -207 354 -277 529 -44 111 -107 304 -101 309 2 2 407 140 899 306 492 166 1039 351 1215 411 176 59 329 106 340 104 11 -3 48 -5 83 -5z m11800 -20 c-5 -17 -13 -32 -17 -34 -12 -8 -28 8 -35 37 -6 26 -4 27 28 27 34 0 35 0 24 -30z m177 -91 c8 -12 6 -12 -48 7 -48 16 -52 20 -41 48 5 13 13 11 45 -15 21 -17 41 -35 44 -40z m-11135 19 c22 -19 28 -28 15 -24 -11 4 -32 10 -47 13 -19 4 -28 12 -28 24 0 27 20 23 60 -13z m5163 -26 c22 -24 7 -45 -26 -36 -30 7 -31 8 -17 35 13 24 22 24 43 1z m5665 -47 c-3 -3 -13 7 -23 22 l-17 28 23 -22 c12 -12 20 -25 17 -28z m372 -15 c24 -7 330 -255 940 -761 498 -413 906 -754 908 -758 5 -13 -162 -206 -276 -319 -114 -113 -328 -292 -347 -291 -5 0 -327 427 -715 949 l-705 948 -26 104 -25 103 30 41 31 41 75 -24 c41 -12 91 -27 110 -33z m-11076 -18 c41 -32 1837 -1520 1859 -1542 l28 -27 -69 -89 c-96 -125 -243 -285 -343 -375 -120 -108 -210 -180 -219 -177 -9 3 -1436 1917 -1475 1978 -13 19 -30 68 -40 107 l-17 73 26 31 c15 17 33 44 41 59 l14 28 92 -29 c50 -16 96 -32 103 -37z m10483 22 c-2 -2 -12 -1 -22 2 -17 7 -17 8 1 21 17 12 19 12 22 -2 2 -9 2 -19 -1 -21z m-167 -12 c0 -13 -12 -22 -22 -16 -10 6 -1 24 13 24 5 0 9 -4 9 -8z m-10750 -24 c18 -22 18 -23 -3 -35 -35 -20 -47 -15 -47 16 0 25 8 35 28 40 2 1 12 -9 22 -21z m5433 -34 c-6 -16 -63 -19 -63 -3 0 6 5 19 10 30 10 18 12 18 35 3 14 -9 21 -22 18 -30z m4927 17 c-15 -30 -12 -128 6 -163 9 -17 12 -34 7 -39 -4 -4 -368 -236 -808 -514 l-799 -506 -164 -39 c-90 -22 -168 -40 -173 -40 -14 0 -145 228 -214 372 -62 132 -135 314 -135 341 0 7 15 18 33 24 17 6 327 110 687 232 l655 220 440 65 c242 35 448 64 458 65 14 1 16 -2 7 -18z m-10560 -6 c0 -13 -4 -14 -20 -5 -11 6 -20 13 -20 15 0 3 9 5 20 5 11 0 20 -7 20 -15z m1835 -325 c578 -177 1064 -325 1082 -331 l32 -10 -34 -97 c-48 -138 -100 -260 -167 -390 -53 -104 -158 -279 -196 -330 -17 -21 -26 -13 -912 729 -492 413 -899 755 -905 760 -6 6 2 6 20 0 17 -6 503 -155 1080 -331z m10985 40 c272 -83 650 -199 840 -257 190 -58 346 -106 347 -107 5 -4 -67 -178 -117 -283 -79 -166 -287 -503 -311 -503 -8 0 -1649 1370 -1708 1426 -20 19 12 11 215 -51 132 -40 462 -141 734 -225z m-1374 203 c-2 -2 -14 12 -26 32 -19 31 -20 39 -9 46 11 6 17 -1 26 -33 7 -23 11 -43 9 -45z m-5572 48 l28 -29 -47 -4 c-25 -2 -48 -2 -50 1 -6 5 24 61 33 61 5 0 21 -13 36 -29z m-6002 -16 c23 -19 61 -42 85 -51 l43 -17 0 -60 c0 -53 -12 -91 -99 -311 -351 -886 -843 -2121 -849 -2132 -13 -24 -355 126 -539 237 -107 64 -283 183 -283 192 0 4 335 481 745 1060 634 894 753 1057 793 1084 26 17 51 32 55 32 5 1 27 -15 49 -34z m11546 -62 c52 -69 62 -90 85 -178 14 -55 96 -374 181 -710 86 -335 208 -812 271 -1060 63 -247 112 -452 107 -455 -10 -9 -140 -45 -247 -69 -172 -38 -434 -71 -566 -71 l-56 0 -6 388 c-4 213 -10 657 -13 987 l-6 600 44 20 c51 25 103 95 113 155 16 92 -49 212 -130 242 -19 6 -35 15 -35 18 0 3 15 44 34 91 26 64 39 86 57 91 39 11 93 26 101 27 4 1 34 -34 66 -76z m-298 -33 l0 -100 -125 0 c-69 0 -125 3 -125 8 0 4 8 12 19 19 25 16 61 92 61 130 0 38 7 41 98 42 l72 1 0 -100z m-10790 80 c0 -5 -2 -10 -4 -10 -3 0 -8 5 -11 10 -3 6 -1 10 4 10 6 0 11 -4 11 -10z m10854 2 c2 -4 -2 -18 -10 -32 l-13 -25 -1 33 c0 29 12 43 24 24z m-5611 -23 c29 -16 28 -14 21 -33 -4 -10 -17 -16 -35 -16 -31 0 -32 2 -23 38 7 26 8 26 37 11z m-5253 -53 c41 -54 44 -66 161 -523 65 -257 206 -810 313 -1228 138 -538 191 -762 183 -767 -19 -12 -225 -66 -332 -87 -136 -28 -328 -49 -460 -53 l-110 -3 -11 915 c-7 503 -13 1084 -14 1290 -2 359 -1 377 19 423 20 45 22 47 63 48 24 0 63 8 88 19 25 10 48 18 52 19 4 1 26 -24 48 -53z m-906 -312 c-120 -170 -437 -624 -707 -1009 -269 -385 -493 -704 -497 -708 -11 -12 -178 130 -315 267 -164 165 -379 436 -360 454 11 11 2090 1310 2093 1307 1 -1 -95 -141 -214 -311z m10025 311 c-7 -7 -1171 -406 -1175 -403 -5 5 -64 221 -61 223 1 2 272 42 602 89 330 48 605 89 610 91 15 5 29 6 24 0z m-2514 -46 c11 -17 -1 -21 -15 -4 -8 9 -8 15 -2 15 6 0 14 -5 17 -11z m-1380 -11 c36 -16 28 -42 -14 -46 -28 -3 -33 -1 -27 13 3 9 6 23 6 31 0 17 2 17 35 2z m5096 -46 l22 -19 -218 -311 c-197 -282 -221 -313 -254 -322 -279 -80 -1121 -299 -1120 -291 1 8 1522 959 1535 960 7 1 22 -7 35 -17z m162 -47 c19 -8 58 -15 86 -16 49 -2 63 -10 40 -25 -21 -13 -49 -89 -49 -137 0 -55 16 -99 53 -143 22 -25 24 -34 14 -46 -7 -9 -93 -41 -192 -71 -211 -66 -454 -137 -466 -137 -5 0 20 39 55 88 35 48 129 180 210 295 141 198 149 207 180 207 19 0 49 -7 69 -15z m-10173 -258 c107 -144 430 -574 718 -956 288 -382 519 -697 515 -700 -140 -100 -324 -211 -468 -281 -158 -78 -372 -167 -380 -158 -6 7 -590 2358 -585 2357 3 0 93 -118 200 -262z m11610 -655 c369 -492 670 -895 668 -897 -30 -28 -257 -163 -377 -223 -144 -74 -351 -162 -411 -177 l-25 -6 -274 1098 c-150 604 -275 1105 -278 1113 -5 13 -4 13 9 0 9 -8 318 -417 688 -908z m-6712 892 c34 -9 28 -41 -8 -46 -27 -4 -30 -2 -30 24 0 30 2 31 38 22z m-5503 -1074 c8 -520 17 -1052 21 -1184 l6 -239 -123 7 c-286 16 -568 65 -787 137 -53 18 -63 24 -59 40 3 11 211 530 464 1155 436 1082 458 1134 460 1083 1 -30 9 -479 18 -999z m5731 991 c5 -5 50 -26 99 -46 139 -57 202 -94 249 -146 83 -92 88 -186 21 -387 -25 -74 -45 -141 -45 -149 0 -25 -16 -13 -91 65 -91 93 -129 148 -179 255 -50 108 -70 190 -77 315 -6 98 -1 116 23 93z m-206 -51 c0 -16 -26 -30 -57 -30 -12 0 -18 41 -8 52 3 2 18 3 35 0 20 -3 30 -10 30 -22z m1975 -42 c-10 -109 -42 -233 -85 -323 -63 -133 -58 -132 -120 -30 -29 48 -61 110 -71 136 -23 61 -24 155 -3 209 13 32 22 41 47 45 45 8 209 33 226 34 10 1 12 -14 6 -71z m-1967 -69 c2 -11 -8 -20 -29 -28 -18 -6 -34 -11 -35 -11 -2 0 -4 14 -4 31 0 28 2 30 32 27 21 -2 34 -9 36 -19z m17 -108 c3 -5 -8 -19 -24 -30 -25 -18 -30 -19 -35 -5 -12 32 -6 44 23 44 17 0 32 -4 36 -9z m2118 -52 c3 -13 1 -19 -6 -16 -15 5 -22 37 -9 37 5 0 12 -9 15 -21z m3437 -21 c0 -24 7 -394 15 -823 8 -429 15 -852 15 -939 l0 -159 -142 6 c-171 8 -339 29 -497 63 -176 37 -277 68 -273 84 4 16 689 1715 705 1749 14 28 85 58 140 60 l37 1 0 -42z m-513 -764 c-162 -406 -318 -799 -347 -872 -61 -156 -35 -148 -230 -71 -198 77 -498 238 -607 324 l-25 21 402 568 c222 312 412 572 424 576 12 5 143 45 291 89 149 44 295 88 325 98 30 10 56 16 58 13 1 -4 -130 -339 -291 -746z m-5013 731 c3 -9 -4 -21 -20 -32 -22 -14 -27 -14 -35 -2 -15 23 -10 37 14 42 12 2 25 5 28 6 4 0 9 -6 13 -14z m2117 -44 c3 -3 21 -46 39 -96 46 -125 137 -325 198 -434 28 -50 47 -93 44 -95 -22 -13 -891 -181 -897 -174 -4 5 -45 157 -45 166 0 4 17 -12 38 -35 26 -31 41 -40 51 -34 11 7 10 19 -7 70 -12 35 -17 63 -11 67 5 3 33 -15 61 -40 38 -33 55 -42 64 -35 10 8 7 23 -12 66 -14 31 -21 60 -16 65 4 4 32 -9 62 -32 40 -30 57 -37 66 -29 11 9 7 22 -18 65 -17 30 -27 58 -23 62 3 4 34 -8 67 -27 80 -44 95 -31 45 41 -20 28 -33 56 -29 60 5 5 34 -3 65 -17 84 -39 100 -21 42 44 -57 63 -44 76 44 42 74 -28 83 -9 25 50 -26 26 -44 52 -40 57 4 7 26 5 62 -5 94 -24 110 -3 39 48 -68 49 -61 63 25 55 87 -9 93 7 21 54 -60 38 -61 64 -2 54 20 -4 39 -9 42 -13z m-2101 -11 c0 -5 -5 -10 -11 -10 -5 0 -7 5 -4 10 3 6 8 10 11 10 2 0 4 -4 4 -10z m2015 -40 c3 -5 -1 -10 -9 -10 -9 0 -16 5 -16 10 0 6 4 10 9 10 6 0 13 -4 16 -10z m-1988 -16 c2 -6 -8 -19 -22 -28 -24 -16 -26 -16 -34 6 -5 15 -5 26 3 31 15 10 49 4 53 -9z m1938 -84 c3 -5 2 -10 -4 -10 -5 0 -13 5 -16 10 -3 6 -2 10 4 10 5 0 13 -4 16 -10z m-1890 -11 c4 -5 -1 -19 -11 -30 -13 -14 -20 -16 -31 -8 -7 6 -13 17 -13 24 0 22 44 33 55 14z m4458 -13 c-4 -7 -179 -257 -387 -555 l-380 -541 -25 17 c-73 47 -230 182 -346 298 -114 114 -305 336 -305 355 0 4 37 30 83 58 80 49 92 53 442 141 198 50 482 124 630 164 301 83 299 83 288 63z m-4428 -36 c-3 -5 -11 -10 -16 -10 -6 0 -7 5 -4 10 3 6 11 10 16 10 6 0 7 -4 4 -10z m35 -49 c0 -4 -6 -16 -14 -26 -12 -16 -16 -17 -30 -6 -22 18 -20 30 7 40 22 9 37 6 37 -8z m859 -114 c17 -65 31 -122 31 -127 0 -22 -254 1 -278 24 -2 3 24 38 59 78 101 117 143 158 150 150 3 -4 20 -60 38 -125z m906 123 c3 -6 -1 -7 -9 -4 -18 7 -21 14 -7 14 6 0 13 -4 16 -10z m-467 -69 l63 -49 -56 -32 c-31 -18 -58 -31 -60 -29 -4 4 -45 163 -45 174 0 9 30 -10 98 -64z m-1268 19 c0 -5 -5 -10 -11 -10 -5 0 -7 5 -4 10 3 6 8 10 11 10 2 0 4 -4 4 -10z m1665 -30 c3 -5 1 -10 -4 -10 -6 0 -11 5 -11 10 0 6 2 10 4 10 3 0 8 -4 11 -10z m-1628 -16 c2 -5 -3 -19 -11 -29 -15 -20 -15 -20 -29 0 -13 17 -13 21 2 32 17 13 33 12 38 -3z m37 -33 c3 -5 -1 -11 -9 -14 -9 -4 -12 -1 -8 9 6 16 10 17 17 5z m1511 -31 c3 -5 1 -10 -4 -10 -6 0 -11 5 -11 10 0 6 2 10 4 10 3 0 8 -4 11 -10z m-1470 -10 c3 -5 0 -21 -8 -35 l-13 -26 -19 21 c-18 20 -18 21 1 35 23 17 31 18 39 5z m45 -34 c0 -3 -4 -8 -10 -11 -5 -3 -10 -1 -10 4 0 6 5 11 10 11 6 0 10 -2 10 -4z m1335 -26 c3 -5 1 -10 -4 -10 -6 0 -11 5 -11 10 0 6 2 10 4 10 3 0 8 -4 11 -10z m-1292 -7 c3 -5 0 -21 -6 -36 -11 -26 -14 -27 -32 -13 -19 14 -19 15 -1 35 20 22 32 26 39 14z m39 -45 c-7 -7 -12 -8 -12 -2 0 14 12 26 19 19 2 -3 -1 -11 -7 -17z m2728 2 c-47 -36 -69 -45 -82 -32 -6 6 -9 14 -6 17 4 5 79 28 108 34 3 0 -6 -8 -20 -19z m-2676 -19 c7 -11 -4 -71 -13 -71 -3 0 -14 7 -24 14 -18 14 -18 16 -2 40 18 27 30 32 39 17z m1116 -1 c0 -5 -2 -10 -4 -10 -3 0 -8 5 -11 10 -3 6 -1 10 4 10 6 0 11 -4 11 -10z m-1015 -50 c7 -12 -4 -80 -14 -80 -3 0 -14 7 -24 15 -18 13 -18 15 -1 44 19 32 29 38 39 21z m915 0 c0 -5 -2 -10 -4 -10 -3 0 -8 5 -11 10 -3 6 -1 10 4 10 6 0 11 -4 11 -10z m-860 -24 c0 -3 -4 -8 -10 -11 -5 -3 -10 -1 -10 4 0 6 5 11 10 11 6 0 10 -2 10 -4z m50 -62 c0 -47 -11 -55 -45 -30 -18 13 -18 14 4 50 28 45 41 38 41 -20z m42 14 c-7 -7 -12 -8 -12 -2 0 14 12 26 19 19 2 -3 -1 -11 -7 -17z m71 -48 c4 -29 6 -55 4 -57 -6 -5 -67 18 -67 25 0 20 37 91 45 89 5 -2 13 -28 18 -57z m47 36 c0 -3 -4 -8 -10 -11 -5 -3 -10 -1 -10 4 0 6 5 11 10 11 6 0 10 -2 10 -4z m60 -27 c4 -13 10 -41 14 -62 l7 -39 -33 7 c-18 4 -36 10 -40 14 -11 9 24 112 36 108 5 -2 13 -14 16 -28z m50 11 c0 -5 -4 -10 -10 -10 -5 0 -10 5 -10 10 0 6 5 10 10 10 6 0 10 -4 10 -10z m76 -52 c28 -88 50 -90 60 -6 l7 63 19 -68 c11 -38 18 -70 16 -71 -5 -5 -159 12 -165 17 -9 10 20 127 31 127 7 0 21 -28 32 -62z m34 46 c0 -8 -4 -12 -10 -9 -5 3 -10 10 -10 16 0 5 5 9 10 9 6 0 10 -7 10 -16z" fill="#4EDD69"/>
</g>
</svg>
